<mxfile host="app.diagrams.net" modified="2022-04-12T08:02:02.100Z" agent="5.0 (Windows)" etag="m_bBY1NYNB_73qWvhAjg" version="17.4.3" type="github">
  <diagram name="Page-1" id="e7e014a7-5840-1c2e-5031-d8a46d1fe8dd">
    <mxGraphModel dx="2062" dy="1112" grid="1" gridSize="10" guides="1" tooltips="1" connect="1" arrows="1" fold="1" page="1" pageScale="1" pageWidth="1169" pageHeight="826" background="none" math="0" shadow="0">
      <root>
        <mxCell id="0" />
        <mxCell id="1" parent="0" />
        <mxCell id="2" value="User" style="swimlane;whiteSpace=wrap;movable=0;" parent="1" vertex="1">
          <mxGeometry x="164.5" y="128" width="280" height="570" as="geometry" />
        </mxCell>
        <mxCell id="5" value="" style="ellipse;shape=startState;fillColor=#000000;strokeColor=#ff0000;" parent="2" vertex="1">
          <mxGeometry x="125" y="40" width="30" height="30" as="geometry" />
        </mxCell>
        <mxCell id="6" value="" style="edgeStyle=elbowEdgeStyle;elbow=horizontal;verticalAlign=bottom;endArrow=open;endSize=8;strokeColor=#FF0000;endFill=1;rounded=0;entryX=0.5;entryY=0;entryDx=0;entryDy=0;" parent="2" source="5" target="71" edge="1">
          <mxGeometry x="100" y="40" as="geometry">
            <mxPoint x="140" y="122" as="targetPoint" />
          </mxGeometry>
        </mxCell>
        <mxCell id="71" value="opens product page" style="rounded=1;whiteSpace=wrap;html=1;arcSize=40;fontColor=#000000;fillColor=#ffffc0;strokeColor=#ff0000;" parent="2" vertex="1">
          <mxGeometry x="80" y="112" width="120" height="40" as="geometry" />
        </mxCell>
        <mxCell id="oIT_lCnAay2G3BSpdJab-79" value="enter comment" style="rounded=1;whiteSpace=wrap;html=1;arcSize=40;fontColor=#000000;fillColor=#ffffc0;strokeColor=#ff0000;" parent="2" vertex="1">
          <mxGeometry x="80" y="202" width="120" height="40" as="geometry" />
        </mxCell>
        <mxCell id="oIT_lCnAay2G3BSpdJab-80" value="" style="edgeStyle=elbowEdgeStyle;elbow=horizontal;verticalAlign=bottom;endArrow=open;endSize=8;strokeColor=#FF0000;endFill=1;rounded=0;entryX=0.5;entryY=0;entryDx=0;entryDy=0;exitX=0.5;exitY=1;exitDx=0;exitDy=0;" parent="2" source="71" target="oIT_lCnAay2G3BSpdJab-79" edge="1">
          <mxGeometry x="-64.7" y="14" as="geometry">
            <mxPoint x="139.8" y="214" as="targetPoint" />
            <mxPoint x="139.8" y="172" as="sourcePoint" />
          </mxGeometry>
        </mxCell>
        <mxCell id="oIT_lCnAay2G3BSpdJab-81" value="submits comment" style="rounded=1;whiteSpace=wrap;html=1;arcSize=40;fontColor=#000000;fillColor=#ffffc0;strokeColor=#ff0000;" parent="2" vertex="1">
          <mxGeometry x="80" y="292" width="120" height="40" as="geometry" />
        </mxCell>
        <mxCell id="oIT_lCnAay2G3BSpdJab-83" value="" style="edgeStyle=elbowEdgeStyle;elbow=horizontal;verticalAlign=bottom;endArrow=open;endSize=8;strokeColor=#FF0000;endFill=1;rounded=0;exitX=0.5;exitY=1;exitDx=0;exitDy=0;entryX=0.5;entryY=0;entryDx=0;entryDy=0;" parent="2" source="oIT_lCnAay2G3BSpdJab-79" target="oIT_lCnAay2G3BSpdJab-81" edge="1">
          <mxGeometry x="-229.4" y="-14" as="geometry">
            <mxPoint x="139.5" y="282" as="targetPoint" />
            <mxPoint x="139.8" y="252" as="sourcePoint" />
          </mxGeometry>
        </mxCell>
        <mxCell id="3" value="App" style="swimlane;whiteSpace=wrap;movable=0;" parent="1" vertex="1">
          <mxGeometry x="445" y="128" width="280" height="570" as="geometry" />
        </mxCell>
        <mxCell id="38" value="" style="ellipse;shape=endState;fillColor=#000000;strokeColor=#ff0000" parent="3" vertex="1">
          <mxGeometry x="125" y="522" width="30" height="30" as="geometry" />
        </mxCell>
        <mxCell id="oIT_lCnAay2G3BSpdJab-84" value="acknowledgement" style="rounded=1;whiteSpace=wrap;html=1;arcSize=40;fontColor=#000000;fillColor=#ffffc0;strokeColor=#ff0000;" parent="3" vertex="1">
          <mxGeometry x="65" y="292" width="120" height="40" as="geometry" />
        </mxCell>
        <mxCell id="oIT_lCnAay2G3BSpdJab-94" value="error message" style="rounded=1;whiteSpace=wrap;html=1;arcSize=40;fontColor=#000000;fillColor=#ffffc0;strokeColor=#ff0000;" parent="3" vertex="1">
          <mxGeometry x="15" y="362" width="95" height="28" as="geometry" />
        </mxCell>
        <mxCell id="oIT_lCnAay2G3BSpdJab-97" value="success message" style="rounded=1;whiteSpace=wrap;html=1;arcSize=40;fontColor=#000000;fillColor=#ffffc0;strokeColor=#ff0000;" parent="3" vertex="1">
          <mxGeometry x="125" y="412" width="95" height="28" as="geometry" />
        </mxCell>
        <mxCell id="oIT_lCnAay2G3BSpdJab-98" value="" style="edgeStyle=orthogonalEdgeStyle;elbow=horizontal;verticalAlign=bottom;endArrow=open;endSize=8;strokeColor=#FF0000;endFill=1;rounded=1;entryX=0.5;entryY=0;entryDx=0;entryDy=0;exitX=0.5;exitY=1;exitDx=0;exitDy=0;" parent="3" source="oIT_lCnAay2G3BSpdJab-97" target="38" edge="1">
          <mxGeometry x="-303.4" y="77.75999999999999" as="geometry">
            <mxPoint x="359.5" y="502" as="targetPoint" />
            <mxPoint x="185" y="502" as="sourcePoint" />
          </mxGeometry>
        </mxCell>
        <mxCell id="oIT_lCnAay2G3BSpdJab-99" value="" style="edgeStyle=orthogonalEdgeStyle;elbow=horizontal;verticalAlign=bottom;endArrow=open;endSize=8;strokeColor=#FF0000;endFill=1;rounded=1;exitX=0.5;exitY=1;exitDx=0;exitDy=0;entryX=0.5;entryY=0;entryDx=0;entryDy=0;" parent="3" source="oIT_lCnAay2G3BSpdJab-94" target="38" edge="1">
          <mxGeometry x="-738.4" y="-40.24000000000001" as="geometry">
            <mxPoint x="125" y="512" as="targetPoint" />
            <mxPoint x="182.5" y="450" as="sourcePoint" />
          </mxGeometry>
        </mxCell>
        <mxCell id="4" value="Firebase" style="swimlane;whiteSpace=wrap;movable=0;" parent="1" vertex="1">
          <mxGeometry x="724.5" y="128" width="280" height="570" as="geometry" />
        </mxCell>
        <mxCell id="oIT_lCnAay2G3BSpdJab-86" value="saves comment" style="rounded=1;whiteSpace=wrap;html=1;arcSize=40;fontColor=#000000;fillColor=#ffffc0;strokeColor=#ff0000;" parent="4" vertex="1">
          <mxGeometry x="80" y="292" width="120" height="40" as="geometry" />
        </mxCell>
        <mxCell id="oIT_lCnAay2G3BSpdJab-90" value="&lt;font color=&quot;#000000&quot;&gt;success?&lt;/font&gt;" style="rhombus;whiteSpace=wrap;html=1;fillColor=#ffffc0;strokeColor=#ff0000;" parent="4" vertex="1">
          <mxGeometry x="100" y="352" width="80" height="48" as="geometry" />
        </mxCell>
        <mxCell id="oIT_lCnAay2G3BSpdJab-91" value="" style="edgeStyle=elbowEdgeStyle;elbow=horizontal;verticalAlign=bottom;endArrow=open;endSize=8;strokeColor=#FF0000;endFill=1;rounded=0;entryX=0.5;entryY=0;entryDx=0;entryDy=0;exitX=0.5;exitY=1;exitDx=0;exitDy=0;" parent="4" source="oIT_lCnAay2G3BSpdJab-86" target="oIT_lCnAay2G3BSpdJab-90" edge="1">
          <mxGeometry x="-572.9" y="-102.24" as="geometry">
            <mxPoint x="90" y="322" as="targetPoint" />
            <mxPoint x="-84.5" y="322" as="sourcePoint" />
          </mxGeometry>
        </mxCell>
        <mxCell id="oIT_lCnAay2G3BSpdJab-85" value="" style="edgeStyle=elbowEdgeStyle;elbow=horizontal;verticalAlign=bottom;endArrow=open;endSize=8;strokeColor=#FF0000;endFill=1;rounded=0;exitX=1;exitY=0.5;exitDx=0;exitDy=0;entryX=0;entryY=0.5;entryDx=0;entryDy=0;" parent="1" source="oIT_lCnAay2G3BSpdJab-81" target="oIT_lCnAay2G3BSpdJab-84" edge="1">
          <mxGeometry x="-123.89999999999998" y="16" as="geometry">
            <mxPoint x="410" y="450" as="targetPoint" />
            <mxPoint x="410" y="400" as="sourcePoint" />
          </mxGeometry>
        </mxCell>
        <mxCell id="oIT_lCnAay2G3BSpdJab-87" value="" style="edgeStyle=elbowEdgeStyle;elbow=horizontal;verticalAlign=bottom;endArrow=open;endSize=8;strokeColor=#FF0000;endFill=1;rounded=0;entryX=0;entryY=0.5;entryDx=0;entryDy=0;exitX=1;exitY=0.5;exitDx=0;exitDy=0;" parent="1" source="oIT_lCnAay2G3BSpdJab-84" target="oIT_lCnAay2G3BSpdJab-86" edge="1">
          <mxGeometry x="141.60000000000002" y="15.760000000000005" as="geometry">
            <mxPoint x="775.5" y="439.76" as="targetPoint" />
            <mxPoint x="650" y="440" as="sourcePoint" />
          </mxGeometry>
        </mxCell>
        <mxCell id="oIT_lCnAay2G3BSpdJab-92" value="" style="html=1;align=left;verticalAlign=bottom;endArrow=open;endSize=8;strokeColor=#ff0000;exitX=0;exitY=0.5;exitDx=0;exitDy=0;entryX=1;entryY=0.5;entryDx=0;entryDy=0;" parent="1" source="oIT_lCnAay2G3BSpdJab-90" target="oIT_lCnAay2G3BSpdJab-94" edge="1">
          <mxGeometry x="-1" relative="1" as="geometry">
            <mxPoint x="570" y="514" as="targetPoint" />
            <mxPoint x="824.5" y="538.5" as="sourcePoint" />
          </mxGeometry>
        </mxCell>
        <mxCell id="oIT_lCnAay2G3BSpdJab-93" value="no" style="edgeLabel;html=1;align=center;verticalAlign=middle;resizable=0;points=[];" parent="oIT_lCnAay2G3BSpdJab-92" connectable="0" vertex="1">
          <mxGeometry x="-0.8905" relative="1" as="geometry">
            <mxPoint as="offset" />
          </mxGeometry>
        </mxCell>
        <mxCell id="oIT_lCnAay2G3BSpdJab-95" value="" style="html=1;align=left;verticalAlign=bottom;endArrow=open;endSize=8;strokeColor=#ff0000;exitX=0.477;exitY=1.021;exitDx=0;exitDy=0;exitPerimeter=0;entryX=1;entryY=0.5;entryDx=0;entryDy=0;edgeStyle=orthogonalEdgeStyle;" parent="1" source="oIT_lCnAay2G3BSpdJab-90" target="oIT_lCnAay2G3BSpdJab-97" edge="1">
          <mxGeometry x="-1" relative="1" as="geometry">
            <mxPoint x="790" y="570" as="targetPoint" />
            <mxPoint x="864.5" y="560" as="sourcePoint" />
          </mxGeometry>
        </mxCell>
        <mxCell id="oIT_lCnAay2G3BSpdJab-96" value="yes" style="edgeLabel;html=1;align=center;verticalAlign=middle;resizable=0;points=[];" parent="oIT_lCnAay2G3BSpdJab-95" connectable="0" vertex="1">
          <mxGeometry x="-0.8905" relative="1" as="geometry">
            <mxPoint as="offset" />
          </mxGeometry>
        </mxCell>
      </root>
    </mxGraphModel>
  </diagram>
</mxfile>
